<?xml version="1.0" standalone="no"?>
<!DOCTYPE svg PUBLIC "-//W3C//DTD SVG 20010904//EN"
 "http://www.w3.org/TR/2001/REC-SVG-20010904/DTD/svg10.dtd">
<svg version="1.0" xmlns="http://www.w3.org/2000/svg"
 width="403.000000pt" height="404.000000pt" viewBox="0 0 403.000000 404.000000"
 preserveAspectRatio="xMidYMid meet">

<g transform="translate(0.000000,404.000000) scale(0.100000,-0.100000)"
fill="#000000" stroke="none">
<path d="M470 3220 l0 -90 63 0 c34 0 67 -4 72 -8 6 -4 36 -88 69 -187 32 -99
68 -205 79 -235 l20 -55 38 145 c21 80 38 156 38 170 0 14 -24 97 -52 185
l-53 160 -137 3 -137 3 0 -91z"/>
<path d="M1950 2893 c-124 -102 -227 -187 -229 -189 -2 -2 54 -4 125 -4 l129
0 120 106 c223 198 201 174 178 193 -12 9 -38 30 -60 48 l-39 31 -224 -185z"/>
<path d="M790 2573 c0 -6 31 -101 69 -210 117 -334 300 -856 317 -900 15 -41
17 -43 57 -43 36 1 562 -158 554 -167 -8 -7 -363 -113 -410 -122 -113 -21
-205 -90 -250 -190 -31 -66 -30 -187 1 -257 29 -64 102 -136 167 -165 75 -34
181 -33 257 3 112 52 178 149 186 273 5 80 -7 129 -45 188 -13 22 -23 40 -21
42 2 1 86 28 188 60 102 31 193 61 202 66 10 5 42 43 73 84 49 66 59 75 88 75
24 1 46 14 92 55 73 67 65 69 -101 19 l-121 -37 -124 42 c-124 41 -124 41
-279 41 l-154 0 69 71 c39 39 84 77 100 85 26 12 6 13 -172 14 l-202 0 -10 38
c-6 20 -57 201 -115 402 l-104 365 741 8 741 8 81 77 80 77 -35 2 c-19 1 -459
4 -978 5 -717 2 -942 0 -942 -9z m707 -1643 c46 -27 66 -73 61 -132 -7 -63
-31 -89 -135 -140 -67 -32 -88 -38 -115 -33 -96 21 -143 114 -102 201 16 34
68 74 96 74 9 0 22 7 29 16 31 38 116 45 166 14z"/>
<path d="M1356 2222 c-3 -4 23 -103 57 -220 l61 -212 159 0 158 0 349 214
c191 118 356 216 367 219 10 3 -244 5 -564 6 -320 0 -584 -3 -587 -7z"/>
<path d="M2673 1110 c-60 -13 -117 -44 -162 -92 -57 -58 -83 -119 -89 -205 -5
-82 10 -138 57 -206 30 -44 116 -111 131 -102 4 2 22 38 40 80 l33 75 -28 22
c-76 59 -70 179 12 229 27 17 45 20 88 17 60 -5 50 -14 101 100 l24 53 -32 13
c-46 19 -125 26 -175 16z"/>
</g>
</svg>
